<mxfile host="app.diagrams.net" modified="2024-04-09T16:12:04.561Z" agent="Mozilla/5.0 (Macintosh; Intel Mac OS X 10_15_7) AppleWebKit/537.36 (KHTML, like Gecko) Chrome/121.0.0.0 Safari/537.36" etag="n12-y49jUWwyiuxjJIC4" version="24.2.2" type="github">
  <diagram name="第 1 页" id="NlN-oaV5e4OJ7JgvH1-I">
    <mxGraphModel dx="2074" dy="1146" grid="1" gridSize="10" guides="1" tooltips="1" connect="1" arrows="1" fold="1" page="1" pageScale="1" pageWidth="827" pageHeight="1169" math="0" shadow="0">
      <root>
        <mxCell id="0" />
        <mxCell id="1" parent="0" />
        <mxCell id="zJNFZbpcUzYXw6sJoN---7" value="" style="endArrow=open;dashed=1;html=1;rounded=0;startArrow=none;startFill=0;endFill=0;strokeColor=#CC0000;strokeWidth=5;shadow=0;" parent="1" edge="1">
          <mxGeometry width="50" height="50" relative="1" as="geometry">
            <mxPoint x="350" y="240" as="sourcePoint" />
            <mxPoint x="1220" y="240" as="targetPoint" />
          </mxGeometry>
        </mxCell>
        <mxCell id="zJNFZbpcUzYXw6sJoN---1" value="点击保存" style="rounded=0;whiteSpace=wrap;html=1;fillColor=#b1ddf0;strokeColor=#10739e;" parent="1" vertex="1">
          <mxGeometry x="353" y="170" width="90" height="40" as="geometry" />
        </mxCell>
        <mxCell id="zJNFZbpcUzYXw6sJoN---2" value="" style="endArrow=classic;html=1;rounded=0;exitX=0.5;exitY=1;exitDx=0;exitDy=0;endFill=1;entryX=0;entryY=0.5;entryDx=0;entryDy=0;strokeWidth=2;" parent="1" source="zJNFZbpcUzYXw6sJoN---1" target="zJNFZbpcUzYXw6sJoN---3" edge="1">
          <mxGeometry width="50" height="50" relative="1" as="geometry">
            <mxPoint x="173" y="230" as="sourcePoint" />
            <mxPoint x="263" y="240" as="targetPoint" />
            <Array as="points">
              <mxPoint x="398" y="240" />
            </Array>
          </mxGeometry>
        </mxCell>
        <mxCell id="zJNFZbpcUzYXw6sJoN---3" value="&lt;font style=&quot;font-size: 15px;&quot;&gt;初始化框架&lt;/font&gt;" style="rounded=0;whiteSpace=wrap;html=1;fontSize=18;fillColor=#bac8d3;strokeColor=#23445d;" parent="1" vertex="1">
          <mxGeometry x="463" y="220" width="110" height="40" as="geometry" />
        </mxCell>
        <mxCell id="zJNFZbpcUzYXw6sJoN---5" value="变更识别" style="rounded=0;whiteSpace=wrap;html=1;fontSize=18;fillColor=#bac8d3;strokeColor=#23445d;" parent="1" vertex="1">
          <mxGeometry x="670" y="220" width="183" height="40" as="geometry" />
        </mxCell>
        <mxCell id="zJNFZbpcUzYXw6sJoN---8" value="主流程" style="text;html=1;strokeColor=none;fillColor=none;align=center;verticalAlign=middle;whiteSpace=wrap;rounded=0;spacing=5;fontSize=18;" parent="1" vertex="1">
          <mxGeometry x="343" y="260" width="80" height="40" as="geometry" />
        </mxCell>
        <mxCell id="HYtRDiBU0j2kTiGEmcES-20" style="edgeStyle=orthogonalEdgeStyle;rounded=0;orthogonalLoop=1;jettySize=auto;html=1;exitX=1;exitY=0.5;exitDx=0;exitDy=0;entryX=0;entryY=0.5;entryDx=0;entryDy=0;" parent="1" source="zJNFZbpcUzYXw6sJoN---26" target="zJNFZbpcUzYXw6sJoN---5" edge="1">
          <mxGeometry relative="1" as="geometry">
            <Array as="points">
              <mxPoint x="1160" y="240" />
              <mxPoint x="1160" y="170" />
              <mxPoint x="640" y="170" />
              <mxPoint x="640" y="240" />
            </Array>
          </mxGeometry>
        </mxCell>
        <mxCell id="zJNFZbpcUzYXw6sJoN---26" value="执行维护任务" style="rounded=0;whiteSpace=wrap;html=1;fontSize=18;fillColor=#bac8d3;strokeColor=#23445d;" parent="1" vertex="1">
          <mxGeometry x="923" y="220" width="209" height="40" as="geometry" />
        </mxCell>
        <mxCell id="zJNFZbpcUzYXw6sJoN---50" value="" style="endArrow=none;dashed=1;html=1;rounded=0;strokeWidth=2;" parent="1" edge="1">
          <mxGeometry width="50" height="50" relative="1" as="geometry">
            <mxPoint x="433" y="380" as="sourcePoint" />
            <mxPoint x="437" y="217.5" as="targetPoint" />
          </mxGeometry>
        </mxCell>
        <mxCell id="zJNFZbpcUzYXw6sJoN---53" value="&lt;div style=&quot;text-align: center;&quot;&gt;&lt;span style=&quot;background-color: initial;&quot;&gt;新变更&lt;/span&gt;&lt;/div&gt;" style="text;whiteSpace=wrap;html=1;" parent="1" vertex="1">
          <mxGeometry x="900" y="170" width="40" height="30" as="geometry" />
        </mxCell>
        <mxCell id="zJNFZbpcUzYXw6sJoN---54" value="" style="endArrow=none;dashed=1;html=1;rounded=0;strokeWidth=2;" parent="1" edge="1">
          <mxGeometry width="50" height="50" relative="1" as="geometry">
            <mxPoint x="600" y="330" as="sourcePoint" />
            <mxPoint x="600" y="220" as="targetPoint" />
          </mxGeometry>
        </mxCell>
        <mxCell id="zJNFZbpcUzYXw6sJoN---55" value="" style="endArrow=none;dashed=1;html=1;rounded=0;strokeWidth=2;" parent="1" edge="1">
          <mxGeometry width="50" height="50" relative="1" as="geometry">
            <mxPoint x="902" y="330" as="sourcePoint" />
            <mxPoint x="902" y="220" as="targetPoint" />
          </mxGeometry>
        </mxCell>
        <mxCell id="zJNFZbpcUzYXw6sJoN---62" value="" style="endArrow=none;dashed=1;html=1;rounded=0;strokeWidth=2;" parent="1" edge="1">
          <mxGeometry width="50" height="50" relative="1" as="geometry">
            <mxPoint x="1180" y="380" as="sourcePoint" />
            <mxPoint x="1180" y="220" as="targetPoint" />
          </mxGeometry>
        </mxCell>
        <mxCell id="HYtRDiBU0j2kTiGEmcES-13" value="" style="endArrow=none;dashed=1;html=1;rounded=0;strokeWidth=2;" parent="1" edge="1">
          <mxGeometry width="50" height="50" relative="1" as="geometry">
            <mxPoint x="620" y="330" as="sourcePoint" />
            <mxPoint x="620" y="220" as="targetPoint" />
          </mxGeometry>
        </mxCell>
        <mxCell id="HYtRDiBU0j2kTiGEmcES-14" value="" style="endArrow=none;dashed=1;html=1;rounded=0;strokeWidth=2;" parent="1" edge="1">
          <mxGeometry width="50" height="50" relative="1" as="geometry">
            <mxPoint x="870" y="330" as="sourcePoint" />
            <mxPoint x="870" y="220" as="targetPoint" />
          </mxGeometry>
        </mxCell>
        <mxCell id="Mrf4eB9w9hDLm9tq3r7K-4" value="" style="endArrow=classic;html=1;rounded=0;" edge="1" parent="1">
          <mxGeometry relative="1" as="geometry">
            <mxPoint x="443" y="310" as="sourcePoint" />
            <mxPoint x="590" y="310" as="targetPoint" />
          </mxGeometry>
        </mxCell>
        <mxCell id="Mrf4eB9w9hDLm9tq3r7K-5" value="3 ms，0.05%" style="edgeLabel;resizable=0;html=1;;align=center;verticalAlign=middle;fontStyle=1;fontSize=20;" connectable="0" vertex="1" parent="Mrf4eB9w9hDLm9tq3r7K-4">
          <mxGeometry relative="1" as="geometry" />
        </mxCell>
        <mxCell id="Mrf4eB9w9hDLm9tq3r7K-6" value="" style="endArrow=classic;html=1;rounded=0;" edge="1" parent="1">
          <mxGeometry relative="1" as="geometry">
            <mxPoint x="630" y="310" as="sourcePoint" />
            <mxPoint x="860" y="310" as="targetPoint" />
          </mxGeometry>
        </mxCell>
        <mxCell id="Mrf4eB9w9hDLm9tq3r7K-7" value="1547 ms，23.82%" style="edgeLabel;resizable=0;html=1;;align=center;verticalAlign=middle;fontStyle=1;fontSize=20;" connectable="0" vertex="1" parent="Mrf4eB9w9hDLm9tq3r7K-6">
          <mxGeometry relative="1" as="geometry" />
        </mxCell>
        <mxCell id="Mrf4eB9w9hDLm9tq3r7K-8" value="" style="endArrow=classic;html=1;rounded=0;" edge="1" parent="1">
          <mxGeometry relative="1" as="geometry">
            <mxPoint x="450" y="380" as="sourcePoint" />
            <mxPoint x="1160" y="380" as="targetPoint" />
          </mxGeometry>
        </mxCell>
        <mxCell id="Mrf4eB9w9hDLm9tq3r7K-9" value="6496 ms" style="edgeLabel;resizable=0;html=1;;align=center;verticalAlign=middle;fontStyle=1;fontSize=20;" connectable="0" vertex="1" parent="Mrf4eB9w9hDLm9tq3r7K-8">
          <mxGeometry relative="1" as="geometry" />
        </mxCell>
        <mxCell id="Mrf4eB9w9hDLm9tq3r7K-10" value="" style="endArrow=classic;html=1;rounded=0;" edge="1" parent="1">
          <mxGeometry relative="1" as="geometry">
            <mxPoint x="912.5" y="310" as="sourcePoint" />
            <mxPoint x="1170" y="310" as="targetPoint" />
          </mxGeometry>
        </mxCell>
        <mxCell id="Mrf4eB9w9hDLm9tq3r7K-11" value="4560 ms，69.59%" style="edgeLabel;resizable=0;html=1;;align=center;verticalAlign=middle;fontStyle=1;fontSize=20;" connectable="0" vertex="1" parent="Mrf4eB9w9hDLm9tq3r7K-10">
          <mxGeometry relative="1" as="geometry" />
        </mxCell>
        <mxCell id="Mrf4eB9w9hDLm9tq3r7K-14" value="空间型识别占97%" style="rounded=0;whiteSpace=wrap;html=1;fillColor=#f8cecc;strokeColor=#b85450;" vertex="1" parent="1">
          <mxGeometry x="690" y="330" width="120" height="30" as="geometry" />
        </mxCell>
        <mxCell id="Mrf4eB9w9hDLm9tq3r7K-15" value="mark形态维护占71%" style="rounded=0;whiteSpace=wrap;html=1;fillColor=#f8cecc;strokeColor=#b85450;" vertex="1" parent="1">
          <mxGeometry x="970" y="330" width="120" height="30" as="geometry" />
        </mxCell>
      </root>
    </mxGraphModel>
  </diagram>
</mxfile>
